<svg width="54" height="54" viewBox="0 0 54 54" fill="none" xmlns="http://www.w3.org/2000/svg">
    <path d="M4.15386 35.8559H5.73078V36.9328H2.57693V30.5733C2.57693 16.8459 13.5423 5.69232 27.001 5.69232C40.4587 5.69232 51.4231 16.8459 51.4231 30.5733V36.9328H48.2692V35.8559H49.8462H50.3462V35.3559V30.5733C50.3462 17.4566 39.8829 6.76924 27.001 6.76924C14.1171 6.76924 3.65386 17.4566 3.65386 30.5733V35.3559V35.8559H4.15386Z"
          fill="#d1e7f5" stroke="#d1e7f5" stroke-width="2"/>
    <path d="M44.75 30C41.0263 30 38 32.8687 38 36.3986V36.6014C38 40.1313 41.0263 43 44.75 43H47V30H44.75ZM44.75 40.8671C42.275 40.8671 40.25 38.9581 40.25 36.6014V36.3986C40.25 34.0525 42.275 32.1329 44.75 32.1329V40.8671Z"
          fill="#d1e7f5" stroke="#d1e7f5"/>
    <path d="M9.5 30H7V43H9.5C13.6375 43 17 40.1313 17 36.6014V36.3986C17 32.8687 13.6375 30 9.5 30ZM14.5 36.6014C14.5 38.9581 12.2625 40.8671 9.5 40.8671V32.1329C12.2625 32.1329 14.5 34.0525 14.5 36.3986V36.6014Z"
          fill="#d1e7f5" stroke="#d1e7f5"/>
    <path d="M46.4681 48.8077H35.045V46.7308H46.4681C48.0927 46.7308 49.8462 45.6112 49.8462 43.803V36.3943H51.9231V43.803C51.9231 46.5624 49.476 48.8077 46.4681 48.8077Z"
          fill="#d1e7f5" stroke="#d1e7f5"/>
    <path d="M35.3055 42.4938C33.5921 42.4938 32.1901 43.9165 32.1901 45.6508C32.1901 47.3019 33.4467 48.6623 35.0459 48.7869C35.129 48.8077 35.2121 48.8077 35.3055 48.8077C36.6555 48.8077 37.7978 47.9458 38.2236 46.7308C38.3586 46.3985 38.4209 46.035 38.4209 45.6508C38.4209 43.335 36.562 42.4938 35.3055 42.4938ZM34.267 45.6508C34.267 45.0589 34.7343 44.5708 35.3055 44.5708C35.7001 44.5708 36.3439 44.7162 36.3439 45.6508C36.3439 46.2427 35.8767 46.7308 35.3055 46.7308C34.7343 46.7308 34.267 46.2427 34.267 45.6508Z"
          fill="#d1e7f5" stroke="#d1e7f5"/>
</svg>
