<svg version="1.1" xmlns="http://www.w3.org/2000/svg" width="175" height="40" fill="none" viewBox="-1.5 0 188 40">
    <style type="text/css">
        .st0{fill-rule:evenodd;clip-rule:evenodd;fill:#0061FF;}
    </style>
    <rect x="-0.5" y="-0.5" width="186" height="41" rx="19.5" fill="#8E918F"/>
    <rect x="0.5" y="0.5" width="184" height="39" rx="19.5" fill="#131314"/>

    <g transform="translate(10, 9.5) scale(0.6)">
        <path class="st0" d="M29.8,13.6l9,5.7l-9,5.8l-9-5.8l-9,5.8l-9-5.8l9-5.7l-9-5.7l9-5.8l9,5.8l9-5.8l9,5.8
            L29.8,13.6z M29.7,13.6l-9-5.7l-9,5.7l9,5.7L29.7,13.6z M11.7,27l9-5.8l9,5.8l-9,5.8L11.7,27z"/>
    </g>
    <g transform="translate(0, 1.9)">
        <path fill="#E3E3E3" d="M48,20.7c0-0.4-0.1-0.7-0.4-1c-0.3-0.3-0.8-0.5-1.5-0.7c-1.1-0.3-1.9-0.7-2.4-1.2c-0.6-0.5-0.9-1.1-0.9-1.9
            c0-0.8,0.3-1.4,0.9-2c0.6-0.5,1.4-0.8,2.4-0.8c1.1,0,1.9,0.3,2.6,0.9c0.6,0.6,0.9,1.3,0.9,2.1l0,0H48c0-0.5-0.2-0.9-0.5-1.2
            c-0.3-0.3-0.8-0.5-1.4-0.5c-0.6,0-1,0.1-1.3,0.4c-0.3,0.3-0.4,0.6-0.4,1c0,0.4,0.2,0.7,0.5,0.9c0.3,0.2,0.9,0.5,1.6,0.7
            c1,0.3,1.8,0.7,2.4,1.2c0.5,0.5,0.8,1.1,0.8,1.9c0,0.8-0.3,1.5-1,2c-0.6,0.5-1.5,0.7-2.5,0.7c-1,0-1.9-0.3-2.6-0.8
            s-1.1-1.3-1.1-2.2l0,0h1.6c0,0.6,0.2,1,0.6,1.3c0.4,0.3,0.9,0.4,1.5,0.4c0.6,0,1-0.1,1.4-0.4C47.8,21.5,48,21.1,48,20.7z"/>
        <path fill="#E3E3E3" d="M52.9,14.1h-1.6v-1.4h1.6V14.1z M52.9,23.2h-1.6v-7.3h1.6V23.2z"/>
        <path fill="#E3E3E3" d="M54.5,19.7c0-1.2,0.2-2.1,0.8-2.8s1.2-1.1,2.1-1.1c0.4,0,0.8,0.1,1.2,0.3s0.6,0.5,0.8,0.8l0.2-1h1.4v7.3
            c0,0.9-0.3,1.7-0.9,2.2c-0.6,0.5-1.4,0.8-2.5,0.8c-0.4,0-0.7-0.1-1.2-0.2c-0.4-0.1-0.8-0.2-1.1-0.4l0.3-1.3
            c0.3,0.1,0.6,0.2,0.9,0.3c0.3,0.1,0.7,0.1,1.1,0.1c0.6,0,1-0.1,1.3-0.4c0.3-0.3,0.4-0.6,0.4-1.2v-0.8c-0.2,0.3-0.5,0.5-0.8,0.7
            c-0.3,0.2-0.7,0.2-1.1,0.2c-0.9,0-1.6-0.3-2.1-1c-0.5-0.7-0.8-1.5-0.8-2.6V19.7z M56.1,19.8c0,0.7,0.1,1.2,0.4,1.6
            s0.7,0.6,1.2,0.6c0.4,0,0.6-0.1,0.9-0.2c0.2-0.1,0.4-0.4,0.6-0.6V18c-0.2-0.3-0.4-0.5-0.6-0.6c-0.2-0.2-0.5-0.2-0.9-0.2
            c-0.6,0-1,0.2-1.2,0.7c-0.3,0.5-0.4,1.1-0.4,1.8V19.8z"/>
        <path fill="#E3E3E3" d="M64.1,15.9l0.1,1.1c0.2-0.4,0.5-0.7,0.9-0.9c0.4-0.2,0.8-0.3,1.2-0.3c0.8,0,1.4,0.2,1.8,0.7c0.4,0.5,0.6,1.2,0.6,2.2v4.5
            h-1.6v-4.5c0-0.6-0.1-1-0.3-1.2s-0.6-0.4-1-0.4c-0.4,0-0.7,0.1-0.9,0.2s-0.5,0.3-0.6,0.6v5.4h-1.6v-7.3H64.1z"/>
        <path fill="#E3E3E3" d="M75.6,14.1H74v-1.4h1.6V14.1z M75.6,23.2H74v-7.3h1.6V23.2z"/>
        <path fill="#E3E3E3" d="M78.9,15.9L79,17c0.2-0.4,0.5-0.7,0.9-0.9c0.4-0.2,0.8-0.3,1.2-0.3c0.8,0,1.4,0.2,1.8,0.7c0.4,0.5,0.6,1.2,0.6,2.2v4.5
            h-1.6v-4.5c0-0.6-0.1-1-0.3-1.2s-0.6-0.4-1-0.4c-0.4,0-0.7,0.1-0.9,0.2s-0.5,0.3-0.6,0.6v5.4h-1.6v-7.3H78.9z"/>
        <path fill="#E3E3E3" d="M95.2,21.1L95.2,21.1l1.1-5.1h1.6l-2,7.3h-1.3L93,18.4h0l-1.5,4.8h-1.3l-2-7.3h1.6l1.1,5.1h0l1.5-5.1h1.2L95.2,21.1z"/>
        <path fill="#E3E3E3" d="M100.8,14.1h-1.6v-1.4h1.6V14.1z M100.8,23.2h-1.6v-7.3h1.6V23.2z"/>
        <path fill="#E3E3E3" d="M104.7,14.1v1.8h1.3v1.2h-1.3v4c0,0.3,0.1,0.5,0.2,0.6c0.1,0.1,0.3,0.2,0.5,0.2c0.1,0,0.2,0,0.3,0c0.1,0,0.2,0,0.2-0.1
            l0.2,1.2c-0.1,0.1-0.3,0.1-0.5,0.2c-0.2,0-0.4,0.1-0.6,0.1c-0.6,0-1.1-0.2-1.4-0.5s-0.5-0.9-0.5-1.7v-4H102v-1.2h1.1v-1.8H104.7z"
            />
        <path fill="#E3E3E3" d="M109,16.9c0.2-0.3,0.5-0.6,0.9-0.8c0.3-0.2,0.7-0.3,1.2-0.3c0.8,0,1.4,0.2,1.8,0.7s0.7,1.2,0.7,2.3v4.5h-1.6v-4.5
            c0-0.6-0.1-1-0.3-1.2c-0.2-0.3-0.6-0.4-1-0.4c-0.4,0-0.7,0.1-0.9,0.2c-0.3,0.1-0.5,0.3-0.6,0.5v5.4h-1.6V12.7h1.6V16.9z"/>
        <path fill="#E3E3E3" d="M118.8,23.2v-9.8h3.2c1.2,0,2.3,0.4,3,1.2c0.8,0.8,1.2,1.8,1.2,3v1.5c0,1.2-0.4,2.2-1.2,3s-1.8,1.2-3,1.2H118.8z
             M120.5,14.7v7.2h1.6c0.8,0,1.4-0.3,1.9-0.8c0.5-0.5,0.7-1.2,0.7-2.1v-1.5c0-0.8-0.2-1.5-0.7-2s-1.1-0.8-1.9-0.8H120.5z"/>
        <path fill="#E3E3E3" d="M131.6,17.4l-0.7,0c-0.3,0-0.6,0.1-0.8,0.2s-0.4,0.3-0.5,0.6v5.1h-1.6v-7.3h1.5l0.1,1.1c0.2-0.4,0.4-0.7,0.7-0.9
            c0.3-0.2,0.6-0.3,1-0.3c0.1,0,0.2,0,0.3,0c0.1,0,0.2,0,0.2,0.1L131.6,17.4z"/>
        <path fill="#E3E3E3" d="M132.3,19.5c0-1.1,0.3-2,0.9-2.7s1.4-1,2.4-1c1,0,1.9,0.3,2.5,1s0.9,1.6,0.9,2.7v0.1c0,1.1-0.3,2-0.9,2.7
            c-0.6,0.7-1.4,1-2.5,1c-1,0-1.9-0.3-2.5-1s-0.9-1.6-0.9-2.7V19.5z M134,19.7c0,0.7,0.1,1.3,0.4,1.7c0.3,0.4,0.7,0.7,1.3,0.7
            c0.6,0,1-0.2,1.3-0.7s0.4-1,0.4-1.7v-0.1c0-0.7-0.1-1.3-0.4-1.7s-0.7-0.7-1.3-0.7c-0.6,0-1,0.2-1.3,0.7c-0.3,0.5-0.4,1-0.4,1.7
            V19.7z"/>
        <path fill="#E3E3E3" d="M146.9,19.8c0,1.1-0.2,1.9-0.8,2.6c-0.5,0.7-1.2,1-2.1,1c-0.4,0-0.8-0.1-1.1-0.2c-0.3-0.1-0.6-0.4-0.8-0.7V26h-1.6V15.9
            h1.4l0.2,0.9c0.2-0.3,0.5-0.6,0.8-0.8s0.7-0.3,1.2-0.3c0.9,0,1.6,0.4,2.1,1.1s0.8,1.7,0.8,2.8V19.8z M145.3,19.7
            c0-0.7-0.1-1.4-0.4-1.8c-0.3-0.5-0.7-0.7-1.3-0.7c-0.3,0-0.6,0.1-0.9,0.2c-0.2,0.1-0.4,0.4-0.6,0.6v3.3c0.1,0.3,0.3,0.5,0.6,0.6
            c0.2,0.1,0.5,0.2,0.9,0.2c0.6,0,1-0.2,1.3-0.6c0.3-0.4,0.4-1,0.4-1.6V19.7z"/>
        <path fill="#E3E3E3" d="M154.7,19.8c0,1.1-0.2,1.9-0.7,2.6c-0.5,0.7-1.2,1-2.1,1c-0.5,0-0.9-0.1-1.2-0.3c-0.3-0.2-0.6-0.5-0.8-0.8l-0.2,1h-1.3
            V12.7h1.6v4.1c0.2-0.3,0.5-0.5,0.8-0.7c0.3-0.2,0.7-0.2,1.1-0.2c0.9,0,1.6,0.4,2.1,1.1c0.5,0.7,0.7,1.7,0.7,2.8V19.8z M153.1,19.7
            c0-0.8-0.1-1.4-0.4-1.8c-0.3-0.5-0.7-0.7-1.2-0.7c-0.4,0-0.7,0.1-0.9,0.2c-0.2,0.2-0.4,0.4-0.6,0.7v3.1c0.1,0.3,0.3,0.5,0.6,0.7
            c0.2,0.2,0.6,0.2,0.9,0.2c0.6,0,1-0.2,1.2-0.6c0.3-0.4,0.4-0.9,0.4-1.6V19.7z"/>
        <path fill="#E3E3E3" d="M155.9,19.5c0-1.1,0.3-2,0.9-2.7s1.4-1,2.4-1c1,0,1.9,0.3,2.5,1s0.9,1.6,0.9,2.7v0.1c0,1.1-0.3,2-0.9,2.7
            c-0.6,0.7-1.4,1-2.5,1c-1,0-1.9-0.3-2.5-1s-0.9-1.6-0.9-2.7V19.5z M157.5,19.7c0,0.7,0.1,1.3,0.4,1.7c0.3,0.4,0.7,0.7,1.3,0.7
            c0.6,0,1-0.2,1.3-0.7s0.4-1,0.4-1.7v-0.1c0-0.7-0.1-1.3-0.4-1.7s-0.7-0.7-1.3-0.7c-0.6,0-1,0.2-1.3,0.7c-0.3,0.5-0.4,1-0.4,1.7
            V19.7z"/>
        <path fill="#E3E3E3" d="M166.5,18.4l1.4-2.5h1.9l-2.3,3.6l2.4,3.7h-1.9l-1.4-2.6l-1.4,2.6h-1.9l2.4-3.7l-2.3-3.6h1.9L166.5,18.4z"/>
    </g>

</svg>
