<svg width="189" height="41" viewBox="0 0 189 41" fill="none" xmlns="http://www.w3.org/2000/svg">
<g clip-path="url(#clip0_2_4)">
<rect width="189" height="41" fill="#232429"/>
<path d="M167.043 1H21.9569C10.3827 1 1 9.73045 1 20.5C1 31.2696 10.3827 40 21.9569 40H167.043C178.617 40 188 31.2696 188 20.5C188 9.73045 178.617 1 167.043 1Z" fill="#131313"/>
<path d="M167.043 1H21.9569C10.3827 1 1 9.73045 1 20.5C1 31.2696 10.3827 40 21.9569 40H167.043C178.617 40 188 31.2696 188 20.5C188 9.73045 178.617 1 167.043 1Z" stroke="white"/>
<g clip-path="url(#clip1_2_4)">
<path d="M24.9651 14.1095L24.9654 14.1083L32.1029 18.4265L36.356 16.6187C37.2203 16.2414 38.1522 16.0479 39.0937 16.0488C39.2506 16.0488 39.4057 16.056 39.56 16.0664C39.0486 14.0525 37.9692 12.2319 36.4528 10.826C34.9364 9.42007 33.0483 8.48927 31.0181 8.1467C28.9878 7.80413 26.9027 8.06455 25.0162 8.89631C23.1297 9.72807 21.523 11.0954 20.3914 12.832C20.4277 12.8316 20.4636 12.8293 20.5 12.8293C22.0774 12.8271 23.624 13.2705 24.9651 14.1095Z" fill="#0364B8"/>
<path d="M24.9654 14.1083L24.9651 14.1095C23.624 13.2705 22.0774 12.8271 20.5 12.8293C20.4636 12.8293 20.4277 12.8316 20.3914 12.832C18.8475 12.8513 17.3379 13.2952 16.025 14.116C14.7121 14.9367 13.6454 16.1033 12.9396 17.4904C12.2338 18.8774 11.9156 20.4326 12.0191 21.9886C12.1226 23.5446 12.644 25.0428 13.5272 26.322L19.8214 23.6467L22.6194 22.4574L28.8494 19.8094L32.1029 18.4265L24.9654 14.1083Z" fill="#0078D4"/>
<path d="M39.56 16.0664C39.4057 16.056 39.2506 16.0488 39.0938 16.0488C38.1522 16.0479 37.2205 16.2421 36.3562 16.6195L32.1029 18.4265L33.3363 19.1727L37.379 21.6185L39.1428 22.6857L45.1739 26.3345C45.7219 25.307 46.0059 24.157 45.9999 22.9898C45.9939 21.8227 45.698 20.6758 45.1394 19.6541C44.5808 18.6324 43.7773 17.7685 42.8025 17.1417C41.8278 16.5149 40.7129 16.1452 39.56 16.0664Z" fill="#1490DF"/>
<path d="M39.1428 22.6857L37.379 21.6185L33.3363 19.1727L32.1029 18.4265L28.8494 19.8094L22.6194 22.4574L19.8214 23.6467L13.5272 26.322C14.3093 27.4578 15.3521 28.3856 16.5663 29.0261C17.7805 29.6666 19.1302 30.0007 20.5 30H39.0937C40.3404 30.0004 41.564 29.6598 42.6345 29.0144C43.705 28.3691 44.5825 27.443 45.1739 26.3345L39.1428 22.6857Z" fill="#28A8EA"/>
</g>
<path d="M58.6037 17.6719C58.5639 17.2997 58.3963 17.0099 58.1009 16.8026C57.8082 16.5952 57.4276 16.4915 56.9588 16.4915C56.6293 16.4915 56.3466 16.5412 56.1108 16.6406C55.875 16.7401 55.6946 16.875 55.5696 17.0455C55.4446 17.2159 55.3807 17.4105 55.3778 17.6293C55.3778 17.8111 55.419 17.9687 55.5014 18.1023C55.5866 18.2358 55.7017 18.3494 55.8466 18.4432C55.9915 18.5341 56.152 18.6108 56.3281 18.6733C56.5043 18.7358 56.6818 18.7884 56.8608 18.831L57.679 19.0355C58.0085 19.1122 58.3253 19.2159 58.6293 19.3466C58.9361 19.4773 59.2102 19.642 59.4517 19.8409C59.696 20.0398 59.8892 20.2798 60.0312 20.5611C60.1733 20.8423 60.2443 21.1719 60.2443 21.5497C60.2443 22.0611 60.1136 22.5114 59.8523 22.9006C59.5909 23.2869 59.2131 23.5895 58.7188 23.8082C58.2273 24.0241 57.6321 24.1321 56.9332 24.1321C56.2543 24.1321 55.6648 24.027 55.1648 23.8168C54.6676 23.6065 54.2784 23.2997 53.9972 22.8963C53.7188 22.4929 53.5682 22.0014 53.5455 21.4219H55.1009C55.1236 21.7259 55.2173 21.9787 55.3821 22.1804C55.5469 22.3821 55.7614 22.5327 56.0256 22.6321C56.2926 22.7315 56.5909 22.7812 56.9205 22.7812C57.2642 22.7812 57.5653 22.7301 57.8239 22.6278C58.0852 22.5227 58.2898 22.3778 58.4375 22.1932C58.5852 22.0057 58.6605 21.7869 58.6634 21.5369C58.6605 21.3097 58.5938 21.1222 58.4631 20.9744C58.3324 20.8239 58.1491 20.6989 57.9134 20.5994C57.6804 20.4972 57.4077 20.4062 57.0952 20.3267L56.1023 20.071C55.3835 19.8864 54.8153 19.6065 54.3977 19.2315C53.983 18.8537 53.7756 18.3523 53.7756 17.7273C53.7756 17.2131 53.9148 16.7628 54.1932 16.3764C54.4744 15.9901 54.8565 15.6903 55.3395 15.4773C55.8224 15.2614 56.3693 15.1534 56.9801 15.1534C57.5994 15.1534 58.142 15.2614 58.608 15.4773C59.0767 15.6903 59.4446 15.9872 59.7116 16.3679C59.9787 16.7457 60.1165 17.1804 60.125 17.6719H58.6037ZM61.5856 24V17.4545H63.1282V24H61.5856ZM62.3612 16.5256C62.1168 16.5256 61.9066 16.4446 61.7305 16.2827C61.5543 16.1179 61.4663 15.9205 61.4663 15.6903C61.4663 15.4574 61.5543 15.2599 61.7305 15.098C61.9066 14.9332 62.1168 14.8509 62.3612 14.8509C62.6083 14.8509 62.8185 14.9332 62.9918 15.098C63.168 15.2599 63.256 15.4574 63.256 15.6903C63.256 15.9205 63.168 16.1179 62.9918 16.2827C62.8185 16.4446 62.6083 16.5256 62.3612 16.5256ZM67.5611 26.5909C67.0071 26.5909 66.5313 26.5156 66.1335 26.3651C65.7358 26.2173 65.4162 26.0185 65.1747 25.7685C64.9332 25.5185 64.7656 25.2415 64.6719 24.9375L66.0611 24.6009C66.1236 24.7287 66.2145 24.8551 66.3338 24.9801C66.4531 25.108 66.6136 25.2131 66.8153 25.2955C67.0199 25.3807 67.277 25.4233 67.5866 25.4233C68.0241 25.4233 68.3864 25.3168 68.6733 25.1037C68.9602 24.8935 69.1037 24.5469 69.1037 24.0639V22.8239H69.027C68.9474 22.983 68.831 23.1463 68.6776 23.3139C68.527 23.4815 68.3267 23.6222 68.0767 23.7358C67.8295 23.8494 67.5185 23.9062 67.1435 23.9062C66.6406 23.9062 66.1847 23.7884 65.7756 23.5526C65.3693 23.3139 65.0455 22.9588 64.804 22.4872C64.5653 22.0128 64.446 21.419 64.446 20.706C64.446 19.9872 64.5653 19.3807 64.804 18.8864C65.0455 18.3892 65.3707 18.0128 65.7798 17.7571C66.1889 17.4986 66.6449 17.3693 67.1477 17.3693C67.5313 17.3693 67.8466 17.4347 68.0938 17.5653C68.3438 17.6932 68.5426 17.848 68.6903 18.0298C68.8381 18.2088 68.9503 18.3778 69.027 18.5369H69.1122V17.4545H70.6335V24.1065C70.6335 24.6662 70.5 25.1293 70.233 25.4957C69.9659 25.8622 69.6009 26.1364 69.1378 26.3182C68.6747 26.5 68.1491 26.5909 67.5611 26.5909ZM67.5739 22.696C67.9006 22.696 68.179 22.6165 68.4091 22.4574C68.6392 22.2983 68.8139 22.0696 68.9332 21.7713C69.0526 21.473 69.1122 21.1151 69.1122 20.6974C69.1122 20.2855 69.0526 19.9247 68.9332 19.6151C68.8168 19.3054 68.6435 19.0653 68.4134 18.8949C68.1861 18.7216 67.9063 18.6349 67.5739 18.6349C67.2301 18.6349 66.9432 18.7244 66.7131 18.9034C66.483 19.0824 66.3097 19.3281 66.1932 19.6406C66.0767 19.9503 66.0185 20.3026 66.0185 20.6974C66.0185 21.098 66.0767 21.4489 66.1932 21.75C66.3125 22.0483 66.4872 22.2812 66.7173 22.4489C66.9503 22.6136 67.2358 22.696 67.5739 22.696ZM73.7571 20.1648V24H72.2145V17.4545H73.6889V18.5668H73.7656C73.9162 18.2003 74.1563 17.9091 74.4858 17.6932C74.8182 17.4773 75.2287 17.3693 75.7173 17.3693C76.169 17.3693 76.5625 17.4659 76.8977 17.6591C77.2358 17.8523 77.4972 18.1321 77.6818 18.4986C77.8693 18.8651 77.9616 19.3097 77.9588 19.8324V24H76.4162V20.071C76.4162 19.6335 76.3026 19.2912 76.0753 19.044C75.8509 18.7969 75.5398 18.6733 75.142 18.6733C74.8722 18.6733 74.6321 18.733 74.4219 18.8523C74.2145 18.9687 74.0511 19.1378 73.9318 19.3594C73.8153 19.581 73.7571 19.8494 73.7571 20.1648ZM82.5036 24V17.4545H84.0462V24H82.5036ZM83.2791 16.5256C83.0348 16.5256 82.8246 16.4446 82.6484 16.2827C82.4723 16.1179 82.3842 15.9205 82.3842 15.6903C82.3842 15.4574 82.4723 15.2599 82.6484 15.098C82.8246 14.9332 83.0348 14.8509 83.2791 14.8509C83.5263 14.8509 83.7365 14.9332 83.9098 15.098C84.0859 15.2599 84.174 15.4574 84.174 15.6903C84.174 15.9205 84.0859 16.1179 83.9098 16.2827C83.7365 16.4446 83.5263 16.5256 83.2791 16.5256ZM87.1751 20.1648V24H85.6325V17.4545H87.1069V18.5668H87.1836C87.3342 18.2003 87.5742 17.9091 87.9038 17.6932C88.2362 17.4773 88.6467 17.3693 89.1353 17.3693C89.587 17.3693 89.9805 17.4659 90.3157 17.6591C90.6538 17.8523 90.9151 18.1321 91.0998 18.4986C91.2873 18.8651 91.3796 19.3097 91.3768 19.8324V24H89.8342V20.071C89.8342 19.6335 89.7205 19.2912 89.4933 19.044C89.2688 18.7969 88.9577 18.6733 88.56 18.6733C88.2901 18.6733 88.0501 18.733 87.8398 18.8523C87.6325 18.9687 87.4691 19.1378 87.3498 19.3594C87.2333 19.581 87.1751 19.8494 87.1751 20.1648ZM97.2724 24L95.4229 17.4545H96.9954L98.146 22.0568H98.2056L99.3817 17.4545H100.937L102.113 22.0312H102.177L103.311 17.4545H104.887L103.034 24H101.427L100.2 19.5767H100.11L98.8832 24H97.2724ZM105.964 24V17.4545H107.507V24H105.964ZM106.74 16.5256C106.496 16.5256 106.286 16.4446 106.109 16.2827C105.933 16.1179 105.845 15.9205 105.845 15.6903C105.845 15.4574 105.933 15.2599 106.109 15.098C106.286 14.9332 106.496 14.8509 106.74 14.8509C106.987 14.8509 107.197 14.9332 107.371 15.098C107.547 15.2599 107.635 15.4574 107.635 15.6903C107.635 15.9205 107.547 16.1179 107.371 16.2827C107.197 16.4446 106.987 16.5256 106.74 16.5256ZM112.362 17.4545V18.6477H108.599V17.4545H112.362ZM109.528 15.8864H111.071V22.0312C111.071 22.2386 111.102 22.3977 111.164 22.5085C111.23 22.6165 111.315 22.6903 111.42 22.7301C111.525 22.7699 111.642 22.7898 111.77 22.7898C111.866 22.7898 111.954 22.7827 112.034 22.7685C112.116 22.7543 112.179 22.7415 112.221 22.7301L112.481 23.9361C112.399 23.9645 112.281 23.9957 112.127 24.0298C111.977 24.0639 111.792 24.0838 111.574 24.0895C111.187 24.1009 110.839 24.0426 110.529 23.9148C110.22 23.7841 109.974 23.5824 109.792 23.3097C109.613 23.0369 109.525 22.696 109.528 22.2869V15.8864ZM115.335 20.1648V24H113.793V15.2727H115.301V18.5668H115.378C115.531 18.1974 115.768 17.9062 116.089 17.6932C116.413 17.4773 116.825 17.3693 117.325 17.3693C117.78 17.3693 118.176 17.4645 118.514 17.6548C118.852 17.8452 119.114 18.1236 119.298 18.4901C119.486 18.8565 119.58 19.304 119.58 19.8324V24H118.037V20.071C118.037 19.6307 117.923 19.2884 117.696 19.044C117.472 18.7969 117.156 18.6733 116.75 18.6733C116.477 18.6733 116.233 18.733 116.017 18.8523C115.804 18.9687 115.636 19.1378 115.514 19.3594C115.395 19.581 115.335 19.8494 115.335 20.1648ZM131.995 19.6364C131.995 20.5767 131.819 21.3821 131.467 22.0526C131.117 22.7202 130.64 23.2315 130.035 23.5866C129.433 23.9418 128.749 24.1193 127.985 24.1193C127.221 24.1193 126.536 23.9418 125.931 23.5866C125.329 23.2287 124.852 22.7159 124.499 22.0483C124.15 21.3778 123.975 20.5739 123.975 19.6364C123.975 18.696 124.15 17.892 124.499 17.2244C124.852 16.554 125.329 16.0412 125.931 15.6861C126.536 15.331 127.221 15.1534 127.985 15.1534C128.749 15.1534 129.433 15.331 130.035 15.6861C130.64 16.0412 131.117 16.554 131.467 17.2244C131.819 17.892 131.995 18.696 131.995 19.6364ZM130.406 19.6364C130.406 18.9744 130.302 18.4162 130.094 17.9616C129.89 17.5043 129.606 17.1591 129.242 16.9261C128.879 16.6903 128.46 16.5724 127.985 16.5724C127.511 16.5724 127.092 16.6903 126.728 16.9261C126.364 17.1591 126.079 17.5043 125.871 17.9616C125.667 18.4162 125.565 18.9744 125.565 19.6364C125.565 20.2983 125.667 20.858 125.871 21.3153C126.079 21.7699 126.364 22.1151 126.728 22.3509C127.092 22.5838 127.511 22.7003 127.985 22.7003C128.46 22.7003 128.879 22.5838 129.242 22.3509C129.606 22.1151 129.89 21.7699 130.094 21.3153C130.302 20.858 130.406 20.2983 130.406 19.6364ZM134.964 20.1648V24H133.422V17.4545H134.896V18.5668H134.973C135.123 18.2003 135.363 17.9091 135.693 17.6932C136.025 17.4773 136.436 17.3693 136.924 17.3693C137.376 17.3693 137.77 17.4659 138.105 17.6591C138.443 17.8523 138.704 18.1321 138.889 18.4986C139.076 18.8651 139.169 19.3097 139.166 19.8324V24H137.623V20.071C137.623 19.6335 137.51 19.2912 137.282 19.044C137.058 18.7969 136.747 18.6733 136.349 18.6733C136.079 18.6733 135.839 18.733 135.629 18.8523C135.422 18.9687 135.258 19.1378 135.139 19.3594C135.022 19.581 134.964 19.8494 134.964 20.1648ZM143.632 24.1278C142.975 24.1278 142.409 23.9915 141.931 23.7188C141.457 23.4432 141.092 23.054 140.836 22.5511C140.581 22.0455 140.453 21.4503 140.453 20.7656C140.453 20.0923 140.581 19.5014 140.836 18.9929C141.095 18.4815 141.456 18.0838 141.919 17.7997C142.382 17.5128 142.926 17.3693 143.551 17.3693C143.954 17.3693 144.335 17.4347 144.693 17.5653C145.054 17.6932 145.372 17.892 145.647 18.1619C145.926 18.4318 146.145 18.7756 146.304 19.1932C146.463 19.608 146.542 20.1023 146.542 20.6761V21.1491H141.177V20.1094H145.064C145.061 19.8139 144.997 19.5511 144.872 19.321C144.747 19.0881 144.572 18.9048 144.348 18.7713C144.126 18.6378 143.868 18.571 143.572 18.571C143.257 18.571 142.98 18.6477 142.741 18.8011C142.502 18.9517 142.316 19.1506 142.183 19.3977C142.052 19.642 141.985 19.9105 141.983 20.2031V21.1108C141.983 21.4915 142.052 21.8182 142.191 22.0909C142.331 22.3608 142.525 22.5682 142.775 22.7131C143.025 22.8551 143.318 22.9261 143.653 22.9261C143.877 22.9261 144.081 22.8949 144.262 22.8324C144.444 22.767 144.602 22.6719 144.735 22.5469C144.869 22.4219 144.97 22.267 145.038 22.0824L146.478 22.2443C146.387 22.625 146.214 22.9574 145.958 23.2415C145.706 23.5227 145.382 23.7415 144.987 23.8977C144.592 24.0511 144.14 24.1278 143.632 24.1278ZM150.873 24H147.915V15.2727H150.933C151.799 15.2727 152.543 15.4474 153.165 15.7969C153.79 16.1435 154.271 16.642 154.606 17.2926C154.941 17.9432 155.109 18.7216 155.109 19.6278C155.109 20.5369 154.94 21.3182 154.602 21.9716C154.266 22.625 153.782 23.1264 153.148 23.4759C152.518 23.8253 151.759 24 150.873 24ZM149.496 22.6321H150.796C151.404 22.6321 151.911 22.5213 152.317 22.2997C152.724 22.0753 153.029 21.7415 153.234 21.2983C153.438 20.8523 153.54 20.2955 153.54 19.6278C153.54 18.9602 153.438 18.4062 153.234 17.9659C153.029 17.5227 152.727 17.1918 152.326 16.973C151.928 16.7514 151.434 16.6406 150.843 16.6406H149.496V22.6321ZM156.543 24V17.4545H158.038V18.5455H158.107C158.226 18.1676 158.43 17.8764 158.72 17.6719C159.013 17.4645 159.347 17.3608 159.722 17.3608C159.807 17.3608 159.902 17.3651 160.007 17.3736C160.115 17.3793 160.205 17.3892 160.276 17.4034V18.8224C160.21 18.7997 160.107 18.7798 159.964 18.7628C159.825 18.7429 159.69 18.733 159.56 18.733C159.278 18.733 159.026 18.794 158.801 18.9162C158.58 19.0355 158.405 19.2017 158.277 19.4148C158.149 19.6278 158.085 19.8736 158.085 20.152V24H156.543ZM161.3 24V17.4545H162.843V24H161.3ZM162.076 16.5256C161.832 16.5256 161.621 16.4446 161.445 16.2827C161.269 16.1179 161.181 15.9205 161.181 15.6903C161.181 15.4574 161.269 15.2599 161.445 15.098C161.621 14.9332 161.832 14.8509 162.076 14.8509C162.323 14.8509 162.533 14.9332 162.707 15.098C162.883 15.2599 162.971 15.4574 162.971 15.6903C162.971 15.9205 162.883 16.1179 162.707 16.2827C162.533 16.4446 162.323 16.5256 162.076 16.5256ZM170.276 17.4545L167.945 24H166.24L163.909 17.4545H165.554L167.059 22.3168H167.127L168.635 17.4545H170.276ZM174.018 24.1278C173.362 24.1278 172.795 23.9915 172.318 23.7188C171.844 23.4432 171.479 23.054 171.223 22.5511C170.967 22.0455 170.839 21.4503 170.839 20.7656C170.839 20.0923 170.967 19.5014 171.223 18.9929C171.482 18.4815 171.842 18.0838 172.305 17.7997C172.768 17.5128 173.312 17.3693 173.938 17.3693C174.341 17.3693 174.722 17.4347 175.08 17.5653C175.44 17.6932 175.759 17.892 176.034 18.1619C176.313 18.4318 176.531 18.7756 176.69 19.1932C176.849 19.608 176.929 20.1023 176.929 20.6761V21.1491H171.564V20.1094H175.45C175.447 19.8139 175.384 19.5511 175.259 19.321C175.134 19.0881 174.959 18.9048 174.734 18.7713C174.513 18.6378 174.254 18.571 173.959 18.571C173.643 18.571 173.366 18.6477 173.128 18.8011C172.889 18.9517 172.703 19.1506 172.57 19.3977C172.439 19.642 172.372 19.9105 172.369 20.2031V21.1108C172.369 21.4915 172.439 21.8182 172.578 22.0909C172.717 22.3608 172.912 22.5682 173.162 22.7131C173.412 22.8551 173.705 22.9261 174.04 22.9261C174.264 22.9261 174.467 22.8949 174.649 22.8324C174.831 22.767 174.989 22.6719 175.122 22.5469C175.256 22.4219 175.357 22.267 175.425 22.0824L176.865 22.2443C176.774 22.625 176.601 22.9574 176.345 23.2415C176.092 23.5227 175.768 23.7415 175.374 23.8977C174.979 24.0511 174.527 24.1278 174.018 24.1278Z" fill="white"/>
</g>
<defs>
<clipPath id="clip0_2_4">
<rect width="189" height="41" fill="white"/>
</clipPath>
<clipPath id="clip1_2_4">
<rect width="34" height="22" fill="white" transform="translate(12 8)"/>
</clipPath>
</defs>
</svg>
