<svg width="176" height="40" viewBox="0 0 176 40" fill="none" xmlns="http://www.w3.org/2000/svg">
<rect width="174" height="39" fill="#232429"/>
<path d="M155.5 1.02631H20.5C9.73048 1.02631 1.00003 9.5329 1.00003 20.0263C1.00003 30.5197 9.73048 39.0263 20.5 39.0263H155.5C166.27 39.0263 175 30.5197 175 20.0263C175 9.5329 166.27 1.02631 155.5 1.02631Z" stroke="white"/>
<path d="M18.5625 18C18.5625 18 18.3744 17.2993 18.3744 16.3309C18.3744 15.1694 18.6157 13.4405 19.2917 12.2469C15.1792 12.7843 12 16.2923 12 20.5521C12 25.183 15.7545 28.9375 20.3854 28.9375C25.0164 28.9375 41.1667 28.9375 41.1667 28.9375V18H18.5625Z" fill="#00BCD4"/>
<path d="M29.5 7.0625C26.5992 7.0625 23.8172 8.21484 21.766 10.266C19.7148 12.3172 18.5625 15.0992 18.5625 18C18.5625 20.9008 19.7148 23.6828 21.766 25.734C23.8172 27.7852 26.5992 28.9375 29.5 28.9375C32.4008 28.9375 35.1828 27.7852 37.234 25.734C39.2852 23.6828 40.4375 20.9008 40.4375 18C40.4375 15.0992 39.2852 12.3172 37.234 10.266C35.1828 8.21484 32.4008 7.0625 29.5 7.0625Z" fill="#00BCD4"/>
<path d="M29.5 26.75C24.6751 26.75 20.75 22.8249 20.75 18C20.75 13.1751 24.6751 9.25 29.5 9.25C34.3249 9.25 38.25 13.1751 38.25 18C38.25 22.8249 34.3249 26.75 29.5 26.75ZM29.5 10.7083C25.4794 10.7083 22.2083 13.9794 22.2083 18C22.2083 22.0206 25.4794 25.2917 29.5 25.2917C33.5206 25.2917 36.7917 22.0206 36.7917 18C36.7917 13.9794 33.5206 10.7083 29.5 10.7083Z" fill="white"/>
<path d="M26.9479 23.1042C26.3434 23.1042 25.8542 22.6142 25.8542 22.0104V14.7188C25.8542 14.115 26.3434 13.625 26.9479 13.625H30.5938C32.4028 13.625 33.875 15.0972 33.875 16.9063C33.875 18.7153 32.4028 20.1875 30.5938 20.1875H28.0417V22.0104C28.0417 22.6142 27.5524 23.1042 26.9479 23.1042ZM28.0417 18H30.5938C31.1968 18 31.6875 17.5093 31.6875 16.9063C31.6875 16.3032 31.1968 15.8125 30.5938 15.8125H28.0417V18Z" fill="white"/>
<path d="M44.8125 16.9063C44.8125 14.2885 42.6906 12.1667 40.0729 12.1667C39.9191 12.1667 39.8585 12.1521 39.7083 12.1667C39.7288 12.2053 39.7069 12.1645 39.7083 12.1667C40.3857 13.3603 40.6256 15.1686 40.6256 16.3309C40.6256 17.2993 40.4375 18 40.4375 18V21.6276C42.8839 21.4409 44.8125 19.4007 44.8125 16.9063Z" fill="#00BCD4"/>
<path d="M45.2143 18.9115C44.5682 20.3078 43.0217 20.9167 42.5973 20.9167C41.8368 20.9167 40.4375 20.9167 40.4375 20.9167V28.9375C40.6686 28.9207 40.9085 28.9375 41.1667 28.9375C44.3881 28.9375 47 26.3256 47 23.1042C47 21.4563 46.3139 19.9709 45.2143 18.9115Z" fill="#00BCD4"/>
<path d="M58.6037 17.6719C58.5639 17.2997 58.3963 17.0099 58.1009 16.8026C57.8082 16.5952 57.4276 16.4915 56.9588 16.4915C56.6293 16.4915 56.3466 16.5412 56.1108 16.6406C55.875 16.7401 55.6946 16.875 55.5696 17.0455C55.4446 17.2159 55.3807 17.4105 55.3778 17.6293C55.3778 17.8111 55.419 17.9687 55.5014 18.1023C55.5866 18.2358 55.7017 18.3494 55.8466 18.4432C55.9915 18.5341 56.152 18.6108 56.3281 18.6733C56.5043 18.7358 56.6818 18.7884 56.8608 18.831L57.679 19.0355C58.0085 19.1122 58.3253 19.2159 58.6293 19.3466C58.9361 19.4773 59.2102 19.642 59.4517 19.8409C59.696 20.0398 59.8892 20.2798 60.0312 20.5611C60.1733 20.8423 60.2443 21.1719 60.2443 21.5497C60.2443 22.0611 60.1136 22.5114 59.8523 22.9006C59.5909 23.2869 59.2131 23.5895 58.7188 23.8082C58.2273 24.0241 57.6321 24.1321 56.9332 24.1321C56.2543 24.1321 55.6648 24.027 55.1648 23.8168C54.6676 23.6065 54.2784 23.2997 53.9972 22.8963C53.7188 22.4929 53.5682 22.0014 53.5455 21.4219H55.1009C55.1236 21.7259 55.2173 21.9787 55.3821 22.1804C55.5469 22.3821 55.7614 22.5327 56.0256 22.6321C56.2926 22.7315 56.5909 22.7812 56.9205 22.7812C57.2642 22.7812 57.5653 22.7301 57.8239 22.6278C58.0852 22.5227 58.2898 22.3778 58.4375 22.1932C58.5852 22.0057 58.6605 21.7869 58.6634 21.5369C58.6605 21.3097 58.5938 21.1222 58.4631 20.9744C58.3324 20.8239 58.1491 20.6989 57.9134 20.5994C57.6804 20.4972 57.4077 20.4062 57.0952 20.3267L56.1023 20.071C55.3835 19.8864 54.8153 19.6065 54.3977 19.2315C53.983 18.8537 53.7756 18.3523 53.7756 17.7273C53.7756 17.2131 53.9148 16.7628 54.1932 16.3764C54.4744 15.9901 54.8565 15.6903 55.3395 15.4773C55.8224 15.2614 56.3693 15.1534 56.9801 15.1534C57.5994 15.1534 58.142 15.2614 58.608 15.4773C59.0767 15.6903 59.4446 15.9872 59.7116 16.3679C59.9787 16.7457 60.1165 17.1804 60.125 17.6719H58.6037ZM61.5856 24V17.4545H63.1282V24H61.5856ZM62.3612 16.5256C62.1168 16.5256 61.9066 16.4446 61.7305 16.2827C61.5543 16.1179 61.4663 15.9205 61.4663 15.6903C61.4663 15.4574 61.5543 15.2599 61.7305 15.098C61.9066 14.9332 62.1168 14.8509 62.3612 14.8509C62.6083 14.8509 62.8185 14.9332 62.9918 15.098C63.168 15.2599 63.256 15.4574 63.256 15.6903C63.256 15.9205 63.168 16.1179 62.9918 16.2827C62.8185 16.4446 62.6083 16.5256 62.3612 16.5256ZM67.5611 26.5909C67.0071 26.5909 66.5313 26.5156 66.1335 26.3651C65.7358 26.2173 65.4162 26.0185 65.1747 25.7685C64.9332 25.5185 64.7656 25.2415 64.6719 24.9375L66.0611 24.6009C66.1236 24.7287 66.2145 24.8551 66.3338 24.9801C66.4531 25.108 66.6136 25.2131 66.8153 25.2955C67.0199 25.3807 67.277 25.4233 67.5866 25.4233C68.0241 25.4233 68.3864 25.3168 68.6733 25.1037C68.9602 24.8935 69.1037 24.5469 69.1037 24.0639V22.8239H69.027C68.9474 22.983 68.831 23.1463 68.6776 23.3139C68.527 23.4815 68.3267 23.6222 68.0767 23.7358C67.8295 23.8494 67.5185 23.9062 67.1435 23.9062C66.6406 23.9062 66.1847 23.7884 65.7756 23.5526C65.3693 23.3139 65.0455 22.9588 64.804 22.4872C64.5653 22.0128 64.446 21.419 64.446 20.706C64.446 19.9872 64.5653 19.3807 64.804 18.8864C65.0455 18.3892 65.3707 18.0128 65.7798 17.7571C66.1889 17.4986 66.6449 17.3693 67.1477 17.3693C67.5313 17.3693 67.8466 17.4347 68.0938 17.5653C68.3438 17.6932 68.5426 17.848 68.6903 18.0298C68.8381 18.2088 68.9503 18.3778 69.027 18.5369H69.1122V17.4545H70.6335V24.1065C70.6335 24.6662 70.5 25.1293 70.233 25.4957C69.9659 25.8622 69.6009 26.1364 69.1378 26.3182C68.6747 26.5 68.1491 26.5909 67.5611 26.5909ZM67.5739 22.696C67.9006 22.696 68.179 22.6165 68.4091 22.4574C68.6392 22.2983 68.8139 22.0696 68.9332 21.7713C69.0526 21.473 69.1122 21.1151 69.1122 20.6974C69.1122 20.2855 69.0526 19.9247 68.9332 19.6151C68.8168 19.3054 68.6435 19.0653 68.4134 18.8949C68.1861 18.7216 67.9063 18.6349 67.5739 18.6349C67.2301 18.6349 66.9432 18.7244 66.7131 18.9034C66.483 19.0824 66.3097 19.3281 66.1932 19.6406C66.0767 19.9503 66.0185 20.3026 66.0185 20.6974C66.0185 21.098 66.0767 21.4489 66.1932 21.75C66.3125 22.0483 66.4872 22.2812 66.7173 22.4489C66.9503 22.6136 67.2358 22.696 67.5739 22.696ZM73.7571 20.1648V24H72.2145V17.4545H73.6889V18.5668H73.7656C73.9162 18.2003 74.1563 17.9091 74.4858 17.6932C74.8182 17.4773 75.2287 17.3693 75.7173 17.3693C76.169 17.3693 76.5625 17.4659 76.8977 17.6591C77.2358 17.8523 77.4972 18.1321 77.6818 18.4986C77.8693 18.8651 77.9616 19.3097 77.9588 19.8324V24H76.4162V20.071C76.4162 19.6335 76.3026 19.2912 76.0753 19.044C75.8509 18.7969 75.5398 18.6733 75.142 18.6733C74.8722 18.6733 74.6321 18.733 74.4219 18.8523C74.2145 18.9687 74.0511 19.1378 73.9318 19.3594C73.8153 19.581 73.7571 19.8494 73.7571 20.1648ZM82.5036 24V17.4545H84.0462V24H82.5036ZM83.2791 16.5256C83.0348 16.5256 82.8246 16.4446 82.6484 16.2827C82.4723 16.1179 82.3842 15.9205 82.3842 15.6903C82.3842 15.4574 82.4723 15.2599 82.6484 15.098C82.8246 14.9332 83.0348 14.8509 83.2791 14.8509C83.5263 14.8509 83.7365 14.9332 83.9098 15.098C84.0859 15.2599 84.174 15.4574 84.174 15.6903C84.174 15.9205 84.0859 16.1179 83.9098 16.2827C83.7365 16.4446 83.5263 16.5256 83.2791 16.5256ZM87.1751 20.1648V24H85.6325V17.4545H87.1069V18.5668H87.1836C87.3342 18.2003 87.5742 17.9091 87.9038 17.6932C88.2362 17.4773 88.6467 17.3693 89.1353 17.3693C89.587 17.3693 89.9805 17.4659 90.3157 17.6591C90.6538 17.8523 90.9151 18.1321 91.0998 18.4986C91.2873 18.8651 91.3796 19.3097 91.3768 19.8324V24H89.8342V20.071C89.8342 19.6335 89.7205 19.2912 89.4933 19.044C89.2688 18.7969 88.9577 18.6733 88.56 18.6733C88.2901 18.6733 88.0501 18.733 87.8398 18.8523C87.6325 18.9687 87.4691 19.1378 87.3498 19.3594C87.2333 19.581 87.1751 19.8494 87.1751 20.1648ZM97.2724 24L95.4229 17.4545H96.9954L98.146 22.0568H98.2056L99.3817 17.4545H100.937L102.113 22.0312H102.177L103.311 17.4545H104.887L103.034 24H101.427L100.2 19.5767H100.11L98.8832 24H97.2724ZM105.964 24V17.4545H107.507V24H105.964ZM106.74 16.5256C106.496 16.5256 106.286 16.4446 106.109 16.2827C105.933 16.1179 105.845 15.9205 105.845 15.6903C105.845 15.4574 105.933 15.2599 106.109 15.098C106.286 14.9332 106.496 14.8509 106.74 14.8509C106.987 14.8509 107.197 14.9332 107.371 15.098C107.547 15.2599 107.635 15.4574 107.635 15.6903C107.635 15.9205 107.547 16.1179 107.371 16.2827C107.197 16.4446 106.987 16.5256 106.74 16.5256ZM112.362 17.4545V18.6477H108.599V17.4545H112.362ZM109.528 15.8864H111.071V22.0312C111.071 22.2386 111.102 22.3977 111.164 22.5085C111.23 22.6165 111.315 22.6903 111.42 22.7301C111.525 22.7699 111.642 22.7898 111.77 22.7898C111.866 22.7898 111.954 22.7827 112.034 22.7685C112.116 22.7543 112.179 22.7415 112.221 22.7301L112.481 23.9361C112.399 23.9645 112.281 23.9957 112.127 24.0298C111.977 24.0639 111.792 24.0838 111.574 24.0895C111.187 24.1009 110.839 24.0426 110.529 23.9148C110.22 23.7841 109.974 23.5824 109.792 23.3097C109.613 23.0369 109.525 22.696 109.528 22.2869V15.8864ZM115.335 20.1648V24H113.793V15.2727H115.301V18.5668H115.378C115.531 18.1974 115.768 17.9062 116.089 17.6932C116.413 17.4773 116.825 17.3693 117.325 17.3693C117.78 17.3693 118.176 17.4645 118.514 17.6548C118.852 17.8452 119.114 18.1236 119.298 18.4901C119.486 18.8565 119.58 19.304 119.58 19.8324V24H118.037V20.071C118.037 19.6307 117.923 19.2884 117.696 19.044C117.472 18.7969 117.156 18.6733 116.75 18.6733C116.477 18.6733 116.233 18.733 116.017 18.8523C115.804 18.9687 115.636 19.1378 115.514 19.3594C115.395 19.581 115.335 19.8494 115.335 20.1648ZM124.129 26.4545V17.4545H125.646V18.5369H125.735C125.815 18.3778 125.927 18.2088 126.072 18.0298C126.217 17.848 126.413 17.6932 126.66 17.5653C126.907 17.4347 127.222 17.3693 127.606 17.3693C128.112 17.3693 128.567 17.4986 128.974 17.7571C129.383 18.0128 129.707 18.392 129.945 18.8949C130.187 19.3949 130.308 20.0085 130.308 20.7358C130.308 21.4545 130.19 22.0653 129.954 22.5682C129.718 23.071 129.397 23.4545 128.991 23.7188C128.585 23.983 128.124 24.1151 127.61 24.1151C127.235 24.1151 126.924 24.0526 126.677 23.9276C126.43 23.8026 126.231 23.652 126.08 23.4759C125.933 23.2969 125.817 23.1278 125.735 22.9688H125.671V26.4545H124.129ZM125.641 20.7273C125.641 21.1506 125.701 21.5213 125.82 21.8395C125.942 22.1577 126.117 22.4062 126.344 22.5852C126.575 22.7614 126.853 22.8494 127.18 22.8494C127.521 22.8494 127.806 22.7585 128.036 22.5767C128.266 22.392 128.44 22.1406 128.556 21.8224C128.675 21.5014 128.735 21.1364 128.735 20.7273C128.735 20.321 128.677 19.9602 128.56 19.6449C128.444 19.3295 128.271 19.0824 128.04 18.9034C127.81 18.7244 127.523 18.6349 127.18 18.6349C126.85 18.6349 126.57 18.7216 126.34 18.8949C126.11 19.0682 125.935 19.3111 125.816 19.6236C125.7 19.9361 125.641 20.304 125.641 20.7273ZM139.167 18.2173H137.573C137.528 17.956 137.444 17.7244 137.322 17.5227C137.2 17.3182 137.048 17.1449 136.866 17.0028C136.684 16.8608 136.477 16.7543 136.244 16.6832C136.013 16.6094 135.765 16.5724 135.498 16.5724C135.023 16.5724 134.603 16.6918 134.237 16.9304C133.87 17.1662 133.583 17.5128 133.376 17.9702C133.168 18.4247 133.065 18.9801 133.065 19.6364C133.065 20.304 133.168 20.8665 133.376 21.3239C133.586 21.7784 133.873 22.1222 134.237 22.3551C134.603 22.5852 135.022 22.7003 135.494 22.7003C135.755 22.7003 135.999 22.6662 136.227 22.598C136.457 22.527 136.663 22.4233 136.844 22.2869C137.029 22.1506 137.184 21.983 137.309 21.7841C137.437 21.5852 137.525 21.358 137.573 21.1023L139.167 21.1108C139.107 21.5256 138.978 21.9148 138.779 22.2784C138.583 22.642 138.326 22.9631 138.008 23.2415C137.69 23.517 137.317 23.733 136.891 23.8892C136.465 24.0426 135.992 24.1193 135.472 24.1193C134.705 24.1193 134.021 23.9418 133.418 23.5866C132.816 23.2315 132.342 22.7188 131.995 22.0483C131.648 21.3778 131.475 20.5739 131.475 19.6364C131.475 18.696 131.65 17.892 131.999 17.2244C132.349 16.554 132.825 16.0412 133.427 15.6861C134.029 15.331 134.711 15.1534 135.472 15.1534C135.958 15.1534 136.41 15.2216 136.827 15.358C137.245 15.4943 137.617 15.6946 137.944 15.9588C138.271 16.2202 138.539 16.5412 138.749 16.9219C138.962 17.2997 139.102 17.7315 139.167 18.2173ZM142.089 15.2727V24H140.547V15.2727H142.089ZM146.531 24.1278C145.891 24.1278 145.337 23.9872 144.869 23.706C144.4 23.4247 144.036 23.0312 143.778 22.5256C143.522 22.0199 143.394 21.429 143.394 20.7528C143.394 20.0767 143.522 19.4844 143.778 18.9759C144.036 18.4673 144.4 18.0724 144.869 17.7912C145.337 17.5099 145.891 17.3693 146.531 17.3693C147.17 17.3693 147.724 17.5099 148.192 17.7912C148.661 18.0724 149.023 18.4673 149.279 18.9759C149.538 19.4844 149.667 20.0767 149.667 20.7528C149.667 21.429 149.538 22.0199 149.279 22.5256C149.023 23.0312 148.661 23.4247 148.192 23.706C147.724 23.9872 147.17 24.1278 146.531 24.1278ZM146.539 22.892C146.886 22.892 147.175 22.7969 147.408 22.6065C147.641 22.4134 147.815 22.1548 147.928 21.831C148.045 21.5071 148.103 21.1463 148.103 20.7486C148.103 20.348 148.045 19.9858 147.928 19.6619C147.815 19.3352 147.641 19.0753 147.408 18.8821C147.175 18.6889 146.886 18.5923 146.539 18.5923C146.184 18.5923 145.888 18.6889 145.653 18.8821C145.42 19.0753 145.245 19.3352 145.129 19.6619C145.015 19.9858 144.958 20.348 144.958 20.7486C144.958 21.1463 145.015 21.5071 145.129 21.831C145.245 22.1548 145.42 22.4134 145.653 22.6065C145.888 22.7969 146.184 22.892 146.539 22.892ZM155.148 21.2472V17.4545H156.691V24H155.195V22.8366H155.127C154.979 23.2031 154.736 23.5028 154.398 23.7358C154.063 23.9687 153.65 24.0852 153.158 24.0852C152.729 24.0852 152.35 23.9901 152.02 23.7997C151.694 23.6065 151.438 23.3267 151.253 22.9602C151.069 22.5909 150.976 22.1449 150.976 21.6222V17.4545H152.519V21.3835C152.519 21.7983 152.632 22.1278 152.86 22.3722C153.087 22.6165 153.385 22.7386 153.755 22.7386C153.982 22.7386 154.202 22.6832 154.415 22.5724C154.628 22.4616 154.803 22.2969 154.939 22.0781C155.078 21.8565 155.148 21.5795 155.148 21.2472ZM160.706 24.1151C160.192 24.1151 159.732 23.983 159.325 23.7188C158.919 23.4545 158.598 23.071 158.362 22.5682C158.126 22.0653 158.009 21.4545 158.009 20.7358C158.009 20.0085 158.128 19.3949 158.366 18.8949C158.608 18.392 158.933 18.0128 159.342 17.7571C159.751 17.4986 160.207 17.3693 160.71 17.3693C161.094 17.3693 161.409 17.4347 161.656 17.5653C161.903 17.6932 162.099 17.848 162.244 18.0298C162.389 18.2088 162.501 18.3778 162.581 18.5369H162.645V15.2727H164.192V24H162.675V22.9688H162.581C162.501 23.1278 162.386 23.2969 162.236 23.4759C162.085 23.652 161.886 23.8026 161.639 23.9276C161.392 24.0526 161.081 24.1151 160.706 24.1151ZM161.136 22.8494C161.463 22.8494 161.741 22.7614 161.972 22.5852C162.202 22.4062 162.376 22.1577 162.496 21.8395C162.615 21.5213 162.675 21.1506 162.675 20.7273C162.675 20.304 162.615 19.9361 162.496 19.6236C162.379 19.3111 162.206 19.0682 161.976 18.8949C161.749 18.7216 161.469 18.6349 161.136 18.6349C160.793 18.6349 160.506 18.7244 160.276 18.9034C160.045 19.0824 159.872 19.3295 159.756 19.6449C159.639 19.9602 159.581 20.321 159.581 20.7273C159.581 21.1364 159.639 21.5014 159.756 21.8224C159.875 22.1406 160.05 22.392 160.28 22.5767C160.513 22.7585 160.798 22.8494 161.136 22.8494Z" fill="white"/>
</svg>
