<svg width="24" height="24" viewBox="0 0 24 24" fill="none" xmlns="http://www.w3.org/2000/svg">
    <path d="M19.6342 14.8325C20.479 14.7296 22.342 14.5082 22.6737 14.9354C23.0052 15.3547 22.3026 17.1192 21.9868 17.9024C21.8921 18.1399 22.0974 18.2347 22.3105 18.0528C23.6999 16.8818 24.0631 14.4368 23.779 14.0808C23.4946 13.7328 21.0553 13.432 19.571 14.4765C19.342 14.6426 19.3815 14.8642 19.6342 14.8325Z" fill="#FF9900"/>
    <path d="M11.9755 19.1128C15.2203 19.1128 18.9939 18.092 21.5913 16.1694C22.0176 15.853 21.6465 15.3704 21.2123 15.5682C18.2992 16.8024 15.1334 17.4038 12.2518 17.4038C7.98077 17.4038 3.85181 16.225 0.504609 14.2786C0.212289 14.1045 -0.0086709 14.4051 0.235969 14.6267C3.33085 17.4275 7.42813 19.1128 11.9755 19.1128Z" fill="#FF9900"/>
    <path d="M6.82128 10.0533C6.82128 10.3461 6.8528 10.5834 6.908 10.7574C6.97818 10.9532 7.06268 11.1436 7.1608 11.327C7.20016 11.3904 7.216 11.4538 7.216 11.5091C7.216 11.5883 7.16864 11.6675 7.06592 11.7466L6.56864 12.0789C6.4976 12.1262 6.4264 12.1501 6.36336 12.1501C6.28432 12.1501 6.20544 12.1104 6.12656 12.0392C6.02012 11.9246 5.92491 11.8001 5.84224 11.6674C5.75398 11.5153 5.6723 11.3595 5.59744 11.2005C4.98176 11.9285 4.208 12.2925 3.27648 12.2925C2.61328 12.2925 2.08448 12.1026 1.6976 11.7229C1.31072 11.343 1.11328 10.8365 1.11328 10.2037C1.11328 9.53104 1.35008 8.98512 1.83168 8.57376C2.31328 8.16224 2.9528 7.95664 3.76608 7.95664C4.0344 7.95664 4.31072 7.98032 4.60288 8.01984C4.89488 8.05952 5.19488 8.12272 5.51072 8.19392V7.61632C5.51072 7.01504 5.38432 6.59568 5.13952 6.3504C4.88704 6.10512 4.46064 5.98656 3.8528 5.98656C3.57648 5.98656 3.29232 6.01808 3.00016 6.08928C2.70991 6.15861 2.42498 6.24855 2.14752 6.3584C2.05775 6.39866 1.96545 6.43303 1.8712 6.46128C1.816 6.47696 1.77648 6.48496 1.7448 6.48496C1.6344 6.48496 1.57904 6.40592 1.57904 6.23968V5.852C1.57904 5.72544 1.59504 5.6304 1.6344 5.5752C1.67376 5.51968 1.7448 5.46432 1.85536 5.4088C2.13168 5.2664 2.46336 5.14784 2.85008 5.0528C3.23696 4.95008 3.64768 4.9024 4.08176 4.9024C5.02128 4.9024 5.708 5.11616 6.15008 5.54336C6.58432 5.97056 6.80544 6.61952 6.80544 7.48976V10.0533H6.82128ZM3.616 11.256C3.87648 11.256 4.14496 11.2085 4.42912 11.1136C4.71328 11.0186 4.96592 10.8445 5.17904 10.6072C5.30544 10.4568 5.40016 10.2907 5.44752 10.1008C5.49488 9.91088 5.5264 9.68144 5.5264 9.41248V9.08016C5.28703 9.0218 5.04457 8.97693 4.80016 8.94576C4.55404 8.91437 4.30619 8.89845 4.05808 8.89808C3.52912 8.89808 3.14224 9.00096 2.88176 9.21456C2.62128 9.42832 2.49488 9.72896 2.49488 10.1245C2.49488 10.4963 2.5896 10.7733 2.78704 10.9632C2.97648 11.161 3.2528 11.256 3.61584 11.256H3.616ZM9.95536 12.1104C9.81328 12.1104 9.71856 12.0867 9.65536 12.0314C9.59232 11.9838 9.53696 11.873 9.4896 11.7227L7.6344 5.60672C7.58704 5.44832 7.56336 5.3456 7.56336 5.29024C7.56336 5.16368 7.6264 5.09248 7.7528 5.09248H8.5264C8.67648 5.09248 8.7792 5.11616 8.8344 5.17152C8.8976 5.21904 8.9448 5.32992 8.99232 5.48016L10.3187 10.7179L11.5502 5.48016C11.5896 5.32176 11.637 5.21904 11.7002 5.17152C11.7634 5.124 11.8738 5.09248 12.016 5.09248H12.6475C12.7976 5.09248 12.9002 5.11616 12.9634 5.17152C13.0266 5.21904 13.0818 5.32992 13.1133 5.48016L14.3606 10.7813L15.7266 5.48016C15.7738 5.32176 15.829 5.21904 15.8843 5.17152C15.9475 5.124 16.0501 5.09248 16.1923 5.09248H16.9264C17.0528 5.09248 17.1238 5.15568 17.1238 5.29024C17.1238 5.32976 17.116 5.36928 17.108 5.4168C17.0957 5.48426 17.0772 5.55046 17.0528 5.61456L15.1502 11.7309C15.1027 11.8891 15.0475 11.9918 14.9843 12.0394C14.9213 12.0869 14.8186 12.1186 14.6843 12.1186H14.0054C13.8554 12.1186 13.7526 12.0947 13.6896 12.0394C13.6266 11.984 13.5712 11.8811 13.5397 11.7229L12.316 6.61968L11.1002 11.715C11.0606 11.8733 11.0133 11.9762 10.9501 12.0315C10.887 12.0869 10.7765 12.1106 10.6344 12.1106L9.95536 12.1104ZM20.1002 12.3242C19.6896 12.3242 19.279 12.2766 18.8843 12.1818C18.4896 12.0867 18.1818 11.9838 17.9765 11.8651C17.8501 11.7939 17.7634 11.7147 17.7317 11.6437C17.701 11.5738 17.6849 11.4984 17.6843 11.4221V11.0186C17.6843 10.8525 17.7475 10.7733 17.8659 10.7733C17.9133 10.7733 17.9606 10.7813 18.008 10.797C18.0554 10.813 18.1264 10.8445 18.2054 10.8762C18.4843 10.999 18.7754 11.0918 19.0739 11.153C19.3896 11.2163 19.6976 11.248 20.0133 11.248C20.5107 11.248 20.8976 11.161 21.1659 10.9869C21.4344 10.8128 21.5765 10.5597 21.5765 10.2352C21.5765 10.0138 21.5054 9.83184 21.3634 9.68144C21.2213 9.53104 20.9528 9.39664 20.5659 9.27008L19.4213 8.91392C18.845 8.732 18.4186 8.46304 18.1581 8.10688C17.8976 7.75872 17.7634 7.37104 17.7634 6.95968C17.7634 6.62736 17.8344 6.33456 17.9765 6.08144C18.1186 5.82832 18.308 5.60672 18.545 5.43264C18.7818 5.25072 19.0501 5.11616 19.3659 5.02128C19.6818 4.92624 20.0133 4.88672 20.3606 4.88672C20.5344 4.88672 20.716 4.89472 20.8896 4.9184C21.0712 4.94208 21.237 4.97376 21.4027 5.00544C21.5606 5.04496 21.7107 5.08448 21.8528 5.13184C21.9949 5.17952 22.1054 5.22688 22.1843 5.2744C22.2949 5.33776 22.3739 5.40096 22.4213 5.47216C22.4686 5.53552 22.4923 5.62256 22.4923 5.73328V6.10528C22.4923 6.27152 22.4291 6.35856 22.3107 6.35856C22.2475 6.35856 22.145 6.32688 22.0107 6.26352C21.5606 6.05792 21.0554 5.95504 20.4949 5.95504C20.045 5.95504 19.6896 6.02624 19.445 6.17648C19.2002 6.32688 19.0739 6.55632 19.0739 6.8808C19.0739 7.10224 19.1528 7.292 19.3107 7.4424C19.4686 7.5928 19.7606 7.7432 20.179 7.8776L21.3002 8.23376C21.8686 8.41568 22.279 8.66896 22.5238 8.99328C22.7686 9.3176 22.887 9.68944 22.887 10.101C22.887 10.4411 22.816 10.7498 22.6818 11.0187C22.5397 11.2877 22.3502 11.5251 22.1054 11.715C21.8606 11.9128 21.5686 12.0552 21.2291 12.1581C20.8739 12.2688 20.5027 12.3242 20.1002 12.3242Z" fill="currentColor"/>
</svg>
