<svg width="24" height="24" viewBox="0 0 24 24" fill="none" xmlns="http://www.w3.org/2000/svg">
    <path d="M12.0009 18.3116V22.2896C18.7434 22.2896 23.9829 15.7796 21.7779 8.71011C21.296 7.18448 20.4538 5.79735 19.3225 4.66604C18.1912 3.53472 16.8041 2.6925 15.2784 2.21061C8.22094 0.00560512 1.71094 5.25561 1.71094 11.9876H5.68894C5.68894 7.76511 9.87694 4.49811 14.3229 6.10761C15.1395 6.40549 15.881 6.87829 16.4956 7.4929C17.1103 8.1075 17.5831 8.84906 17.8809 9.66561C19.5009 14.1071 16.2309 18.2906 12.0129 18.2996V14.3441H8.04544V18.3116H12.0009Z" fill="#0080FF"/>
    <path d="M8.04509 21.3674H4.98809V18.3119H8.04509V21.3674ZM2.43359 18.3119H4.98809V15.7559H2.43359V18.3119Z" fill="#0080FF"/>
</svg>
