<svg width="24" height="24" viewBox="0 0 24 24" fill="none" xmlns="http://www.w3.org/2000/svg">
    <path d="M1.81446 19.6437L2.87289 21.4719C3.09282 21.8568 3.40896 22.1592 3.7801 22.3791C4.84315 21.0297 5.58313 19.9942 6.00006 19.2725C6.42316 18.5402 6.94322 17.3947 7.56022 15.8361C5.89748 15.6172 4.63744 15.5078 3.7801 15.5078C2.95739 15.5078 1.69735 15.6172 0 15.8361C0 16.2622 0.109968 16.6883 0.3299 17.0732L1.81446 19.6437Z" fill="#0066DA"/>
    <path d="M20.2195 22.3791C20.5906 22.1592 20.9068 21.8568 21.1267 21.4719L21.5666 20.7159L23.6697 17.0732C23.8896 16.6883 23.9996 16.2622 23.9996 15.8361C22.2924 15.6172 21.0347 15.5078 20.2264 15.5078C19.3577 15.5078 18.0999 15.6172 16.4531 15.8361C17.0628 17.4033 17.576 18.5487 17.9927 19.2725C18.413 20.0027 19.1553 21.0383 20.2195 22.3791Z" fill="#EA4335"/>
    <path d="M12.0008 8.13855C13.2308 6.65302 14.0785 5.50753 14.5438 4.70209C14.9185 4.05353 15.3309 3.01801 15.7809 1.59553C15.4098 1.37559 14.9837 1.26562 14.5438 1.26562H9.45784C9.01797 1.26562 8.59185 1.38934 8.2207 1.59553C8.79316 3.22697 9.27891 4.38804 9.67796 5.07875C10.1189 5.84205 10.8932 6.86198 12.0008 8.13855Z" fill="#00832D"/>
    <path d="M16.4392 15.8359H7.55939L3.7793 22.3789C4.15044 22.5989 4.57656 22.7088 5.01644 22.7088H18.9822C19.4221 22.7088 19.8482 22.5851 20.2193 22.3789L16.4392 15.8359Z" fill="#2684FC"/>
    <path d="M12.0001 8.13872L8.22003 1.5957C7.84888 1.81564 7.53271 2.11803 7.31279 2.50293L0.3299 14.5993C0.109968 14.9842 0 15.4103 0 15.8364H7.56022L12.0001 8.13872Z" fill="#00AC47"/>
    <path d="M20.1788 8.55111L16.6873 2.50293C16.4674 2.11803 16.1512 1.81564 15.7801 1.5957L12 8.13872L16.4399 15.8364H23.9864C23.9864 15.4103 23.8764 14.9842 23.6565 14.5993L20.1788 8.55111Z" fill="#FFBA00"/>
</svg>
