<svg width="24" height="24" viewBox="0 0 24 24" fill="none" xmlns="http://www.w3.org/2000/svg">
    <g clip-path="url(#clip0_8_2)">
        <path d="M4.5 11.5004C4.5 11.5004 4.37102 11.02 4.37102 10.356C4.37102 9.55956 4.53648 8.37409 5.00003 7.55566C2.18002 7.92415 0 10.3295 0 13.2503C0 16.4256 2.57452 19 5.74999 19C8.92554 19 20 19 20 19V11.5004H4.5Z" fill="#00BCD4"/>
        <path d="M12 4C10.0109 4 8.10322 4.79013 6.69669 6.19657C5.29015 7.60303 4.5 9.51058 4.5 11.4996C4.5 13.4886 5.29015 15.3962 6.69669 16.8026C8.10322 18.2091 10.0109 18.9992 12 18.9992C13.9891 18.9992 15.8968 18.2091 17.3033 16.8026C18.7099 15.3962 19.5 13.4886 19.5 11.4996C19.5 9.51058 18.7099 7.60303 17.3033 6.19657C15.8968 4.79013 13.9891 4 12 4Z" fill="#00BCD4"/>
        <path d="M12 17.4993C8.6915 17.4993 6 14.808 6 11.4997C6 8.19135 8.6915 5.5 12 5.5C15.3085 5.5 18 8.19135 18 11.4997C18 14.808 15.3085 17.4993 12 17.4993ZM12 6.49992C9.24302 6.49992 6.99998 8.74284 6.99998 11.4997C6.99998 14.2565 9.24302 16.4994 12 16.4994C14.757 16.4994 17 14.2565 17 11.4997C17 8.74284 14.757 6.49992 12 6.49992Z" fill="white"/>
        <path d="M10.25 14.9987C9.83552 14.9987 9.5 14.6627 9.5 14.2487V9.24902C9.5 8.835 9.83552 8.49902 10.25 8.49902H12.75C13.9905 8.49902 15 9.50848 15 10.7489C15 11.9893 13.9905 12.9988 12.75 12.9988H11V14.2487C11 14.6627 10.6645 14.9987 10.25 14.9987ZM11 11.4989H12.75C13.1635 11.4989 13.5 11.1624 13.5 10.7489C13.5 10.3354 13.1635 9.99894 12.75 9.99894H11V11.4989Z" fill="white"/>
        <path d="M22.5001 10.7493C22.5001 8.95444 21.045 7.49957 19.2501 7.49957C19.1446 7.49957 19.103 7.48956 19 7.49957C19.014 7.52603 18.9991 7.49806 19 7.49957C19.4645 8.31799 19.629 9.5579 19.629 10.3549C19.629 11.0189 19.5001 11.4993 19.5001 11.4993V13.9867C21.1775 13.8587 22.5001 12.4598 22.5001 10.7493Z" fill="#00BCD4"/>
        <path d="M22.7755 12.126C22.3325 13.0834 21.272 13.5009 20.981 13.5009C20.4595 13.5009 19.5 13.5009 19.5 13.5009V19.0006C19.6585 18.9891 19.823 19.0006 20 19.0006C22.209 19.0006 24 17.2097 24 15.0008C24 13.8709 23.5295 12.8524 22.7755 12.126Z" fill="#00BCD4"/>
    </g>
    <defs>
        <clipPath id="clip0_8_2">
            <rect width="24" height="24" fill="white"/>
        </clipPath>
    </defs>
</svg>
