<svg id="Layer_1" data-name="Layer 1" xmlns="http://www.w3.org/2000/svg" xmlns:xlink="http://www.w3.org/1999/xlink" viewBox="0 0 1772.09 396.7"><defs><style>.cls-1{fill:url(#linear-gradient);}.cls-2{fill:url(#linear-gradient-2);}</style><linearGradient id="linear-gradient" x1="443.1" y1="120.85" x2="693.38" y2="120.85" gradientUnits="userSpaceOnUse"><stop offset="0" stop-color="#36b6fc"/><stop offset="1" stop-color="#2eb67d"/></linearGradient><linearGradient id="linear-gradient-2" x1="443.09" y1="275.85" x2="693.38" y2="275.85" gradientUnits="userSpaceOnUse"><stop offset="0.01" stop-color="#e01f5a"/><stop offset="1" stop-color="#ecb02e"/></linearGradient></defs><path d="M820.07,192.46h0c-6.85-3.11-19-6.61-37.07-10.71-21.34-4.82-28.93-8.67-31.55-11.06A15.75,15.75,0,0,1,746,158.3c0-5.92,2.59-10.87,7.93-15.15s14.53-6.59,27-6.59c11.9,0,20.93,2.46,26.83,7.3s9.3,12.06,10.33,21.62l.32,2.89,26.69-2-.11-2.89A53.19,53.19,0,0,0,836.39,136c-5.33-8.12-13-14.34-22.87-18.49-9.66-4.07-20.93-6.14-33.5-6.14a81.82,81.82,0,0,0-31.39,5.85c-9.6,4-17,9.89-22.06,17.61a45.08,45.08,0,0,0-7.57,25,40.72,40.72,0,0,0,6.26,22.12c4.12,6.54,10.43,12.06,18.72,16.4,6.36,3.38,17,6.83,32.53,10.56,15,3.59,24.7,6.25,29,7.92,6.35,2.42,10.9,5.37,13.54,8.77a18.33,18.33,0,0,1,3.87,11.71,20.47,20.47,0,0,1-4.1,12.35c-2.75,3.81-7.08,6.89-12.87,9.14a57.94,57.94,0,0,1-21,3.51,60.12,60.12,0,0,1-24.1-4.65c-6.93-3-12.08-7-15.3-11.74s-5.4-11.25-6.31-19l-.34-2.89-26.29,2.29.08,2.83a58.77,58.77,0,0,0,9.54,31.19,55.65,55.65,0,0,0,25,20.73c10.42,4.49,23.43,6.77,38.69,6.77a78.77,78.77,0,0,0,33-6.74c9.89-4.53,17.6-11,22.91-19.2a48,48,0,0,0,8-26.42,44.16,44.16,0,0,0-7.37-25.13C837.69,203.1,830.13,197.09,820.07,192.46Z"/><polygon points="998.02 114.14 861.36 114.14 861.36 139.6 915.67 139.6 915.67 284.99 943.48 284.99 943.48 139.6 998.02 139.6 998.02 114.14"/><path d="M1043.45,114.14,977.84,285h29.63l18.1-49.93h64.77L1109.57,285H1141L1071,114.14Zm37.86,97.16h-47.22l16.6-44.32c2.53-6.91,4.71-13.92,6.51-20.94,2.26,6.89,5.09,14.81,8.44,23.66Z"/><path d="M1228,220.33h48.47v26.32c-4.35,3.57-10.6,7-18.59,10.24a70.59,70.59,0,0,1-26.54,5.23,65.74,65.74,0,0,1-29.48-6.88,45.79,45.79,0,0,1-20.75-20.72c-4.82-9.42-7.26-21.37-7.26-35.52a83.69,83.69,0,0,1,6.06-32,54.36,54.36,0,0,1,9.86-15.45,45.43,45.43,0,0,1,16.53-11.22c6.87-2.87,15.18-4.32,24.7-4.32a55.14,55.14,0,0,1,21.55,4.09c6.3,2.67,11.19,6.23,14.53,10.59s6.37,10.81,8.72,18.81l.83,2.83,25.37-7-.74-2.86c-2.94-11.45-7.32-20.91-13-28.11s-13.82-13-23.89-17a89.55,89.55,0,0,0-33.45-6c-16.84,0-32,3.53-44.93,10.48s-23.28,17.89-30.24,32.32a105.38,105.38,0,0,0-10.36,46.22c0,16.6,3.51,31.86,10.45,45.34a72,72,0,0,0,31.24,31.37c13.6,7.13,28.92,10.74,45.53,10.74a101.78,101.78,0,0,0,36.14-6.66,126.68,126.68,0,0,0,34-19.74l1.13-.91V194.87L1228,195Z"/><rect x="1333.74" y="114.14" width="27.81" height="170.85"/><polygon points="1502.75 236.69 1420.77 114.14 1393.79 114.14 1393.79 284.99 1420.7 284.99 1420.7 162.34 1502.68 284.99 1529.66 284.99 1529.66 114.14 1502.75 114.14 1502.75 236.69"/><path d="M1637.46,195v25.33h48.46v26.32c-4.35,3.57-10.59,7-18.59,10.24a70.57,70.57,0,0,1-26.53,5.23,65.71,65.71,0,0,1-29.48-6.88,45.81,45.81,0,0,1-20.76-20.72c-4.82-9.42-7.26-21.37-7.26-35.52a83.51,83.51,0,0,1,6.07-32,54.36,54.36,0,0,1,9.86-15.45,45.47,45.47,0,0,1,16.52-11.22c6.87-2.87,15.18-4.32,24.71-4.32a55.13,55.13,0,0,1,21.54,4.09c6.31,2.67,11.2,6.23,14.53,10.59s6.37,10.81,8.73,18.81l.83,2.83,25.37-7-.74-2.86c-2.94-11.45-7.33-20.91-13-28.11s-13.81-13-23.89-17a89.53,89.53,0,0,0-33.44-6c-16.84,0-32,3.53-44.94,10.48s-23.28,17.89-30.24,32.32a105.52,105.52,0,0,0-10.36,46.22c0,16.6,3.52,31.86,10.45,45.34a72.08,72.08,0,0,0,31.25,31.37c13.6,7.13,28.91,10.74,45.52,10.74a101.88,101.88,0,0,0,36.15-6.66,127,127,0,0,0,34-19.74l1.13-.91V194.87Z"/><path d="M224,223.35c-1.82,7.27-3.46,14.15-4.92,20.57-2.58-13.76-6-28.21-10.31-43.16L184.5,115.14H153.65l-32,113.52c-.55,2-1.92,7.52-4.18,16.91-1.34-6.68-2.82-13.38-4.4-20L87.46,115.14H58.8L104.13,286H131L166.56,158.2q1-3.55,2.08-7.8c.62,2.28,1.34,4.87,2.15,7.79L206.15,286h25.6l46.84-170.85H250.38Z"/><path d="M404.33,125h0c-5.81-4-13.07-6.78-21.52-8.18-5.93-1.08-14.55-1.63-25.61-1.63H292V286h27.82V219h39.28c24.08,0,41.09-5.22,50.56-15.53s14.17-22.89,14.17-37.62A53.78,53.78,0,0,0,418.53,142,43.69,43.69,0,0,0,404.33,125Zm-44.88,68.57H319.83V140.6H359c9.58,0,16.17.45,19.55,1.35a21.37,21.37,0,0,1,12.13,8.57,27,27,0,0,1,4.67,16c0,8.7-2.57,15.21-7.87,19.9h0C382.15,191.12,372.72,193.52,359.45,193.52Z"/><path class="cls-1" d="M657.18,106.31a128,128,0,0,0-214.08,65h34.64A94.43,94.43,0,0,1,633.35,130l-41.66,41.38H693.38v-101Z"/><path class="cls-2" d="M658.74,225.35a94.44,94.44,0,0,1-155.62,41.38l41.66-41.38H443.09v101l36.2-36a128,128,0,0,0,214.09-65Z"/></svg>