<svg width="320" height="340" viewBox="0 0 320 340" fill="none" xmlns="http://www.w3.org/2000/svg">
<path d="M144 256V80H176V256H144Z" fill="#E01E5A"/>
<path d="M79.5 16L97 0H160.5L176.5 16H255V46.5H240.5V207H207.5V46.5H48.5V287H176.5V319H48.5C16 319 16 287 16 287V46.5H0V16H79.5Z" fill="#E01E5A"/>
<path d="M297.5 339.5L263.5 305L229.5 339.5L207.5 316.5L240.5 282L207.5 248.5L229.5 226L263.5 260.5L297.5 227.5L319.5 250L286.5 283.5L319.5 317.5L297.5 339.5Z" fill="#E01E5A"/>
<path d="M79.5 256V80H111.5V256H79.5Z" fill="#E01E5A"/>
</svg>
